<?xml version="1.0" encoding="utf-8"?>
<!-- Generator: Adobe Illustrator 24.1.2, SVG Export Plug-In . SVG Version: 6.00 Build 0)  -->
<svg version="1.1" xmlns="http://www.w3.org/2000/svg" xmlns:xlink="http://www.w3.org/1999/xlink" x="0px" y="0px"
	 viewBox="0 0 500 500" style="enable-background:new 0 0 500 500;" xml:space="preserve">
<style type="text/css">
	.st0{fill:#DADADA;}
	.st1{fill:none;stroke:#FFFFFF;stroke-miterlimit:10;}
</style>
<g id="Calque_2">
	<rect x="0" class="st0" width="500" height="500"/>
</g>
<g id="Calque_1">
	<line class="st1" x1="0.46" y1="19.43" x2="500.46" y2="19.43"/>
	<line class="st1" x1="0.46" y1="43.7" x2="500.46" y2="43.7"/>
	<line class="st1" x1="0.46" y1="67.97" x2="500.46" y2="67.97"/>
	<line class="st1" x1="0.46" y1="92.24" x2="500.46" y2="92.24"/>
	<line class="st1" x1="0.88" y1="116.51" x2="500.88" y2="116.51"/>
	<line class="st1" x1="0.88" y1="140.78" x2="500.88" y2="140.78"/>
	<line class="st1" x1="0.26" y1="165.05" x2="500.26" y2="165.05"/>
	<line class="st1" x1="0.26" y1="189.32" x2="500.26" y2="189.32"/>
	<line class="st1" x1="0.26" y1="213.59" x2="500.26" y2="213.59"/>
	<line class="st1" x1="0.26" y1="237.86" x2="500.26" y2="237.86"/>
	<line class="st1" x1="0.67" y1="262.14" x2="500.67" y2="262.14"/>
	<line class="st1" x1="0.67" y1="286.41" x2="500.67" y2="286.41"/>
	<line class="st1" x1="0.15" y1="310.68" x2="500.15" y2="310.68"/>
	<line class="st1" x1="0.15" y1="334.95" x2="500.15" y2="334.95"/>
	<line class="st1" x1="0.15" y1="359.22" x2="500.15" y2="359.22"/>
	<line class="st1" x1="0.15" y1="383.49" x2="500.15" y2="383.49"/>
	<line class="st1" x1="0.57" y1="407.76" x2="500.57" y2="407.76"/>
	<line class="st1" x1="0.57" y1="432.03" x2="500.57" y2="432.03"/>
	<line class="st1" x1="-0.05" y1="456.3" x2="499.95" y2="456.3"/>
	<line class="st1" x1="-0.05" y1="480.57" x2="499.95" y2="480.57"/>
	<line class="st1" x1="472.82" y1="0.05" x2="472.82" y2="500.05"/>
	<line class="st1" x1="448.55" y1="0.05" x2="448.55" y2="500.05"/>
	<line class="st1" x1="424.28" y1="0.05" x2="424.28" y2="500.05"/>
	<line class="st1" x1="400.01" y1="0.05" x2="400.01" y2="500.05"/>
	<line class="st1" x1="375.74" y1="0.46" x2="375.74" y2="500.46"/>
	<line class="st1" x1="351.47" y1="0.46" x2="351.47" y2="500.46"/>
	<line class="st1" x1="327.2" y1="-0.15" x2="327.2" y2="499.85"/>
	<line class="st1" x1="302.93" y1="-0.15" x2="302.93" y2="499.85"/>
	<line class="st1" x1="278.66" y1="-0.15" x2="278.66" y2="499.85"/>
	<line class="st1" x1="254.39" y1="-0.15" x2="254.39" y2="499.85"/>
	<line class="st1" x1="230.12" y1="0.26" x2="230.12" y2="500.26"/>
	<line class="st1" x1="205.85" y1="0.26" x2="205.85" y2="500.26"/>
	<line class="st1" x1="181.58" y1="-0.26" x2="181.58" y2="499.74"/>
	<line class="st1" x1="157.31" y1="-0.26" x2="157.31" y2="499.74"/>
	<line class="st1" x1="133.03" y1="-0.26" x2="133.03" y2="499.74"/>
	<line class="st1" x1="108.76" y1="-0.26" x2="108.76" y2="499.74"/>
	<line class="st1" x1="84.49" y1="0.15" x2="84.49" y2="500.15"/>
	<line class="st1" x1="60.22" y1="0.15" x2="60.22" y2="500.15"/>
	<line class="st1" x1="35.95" y1="-0.46" x2="35.95" y2="499.54"/>
	<line class="st1" x1="11.68" y1="-0.46" x2="11.68" y2="499.54"/>
</g>
</svg>
